<svg width="24" height="24" viewBox="0 0 24 24" fill="none" xmlns="http://www.w3.org/2000/svg">
<path fill-rule="evenodd" clip-rule="evenodd" d="M17.0306 2.46936C16.961 2.39952 16.8782 2.34411 16.7871 2.3063C16.696 2.26849 16.5983 2.24902 16.4996 2.24902C16.401 2.24902 16.3033 2.26849 16.2122 2.3063C16.1211 2.34411 16.0383 2.39952 15.9686 2.46936L6.96864 11.4694C6.89879 11.539 6.84338 11.6218 6.80557 11.7129C6.76776 11.804 6.7483 11.9017 6.7483 12.0004C6.7483 12.099 6.76776 12.1967 6.80557 12.2878C6.84338 12.3789 6.89879 12.4617 6.96864 12.5314L15.9686 21.5314C16.1095 21.6722 16.3005 21.7513 16.4996 21.7513C16.6988 21.7513 16.8898 21.6722 17.0306 21.5314C17.1715 21.3905 17.2506 21.1995 17.2506 21.0004C17.2506 20.8012 17.1715 20.6102 17.0306 20.4694L8.56014 12.0004L17.0306 3.53136C17.1005 3.4617 17.1559 3.37893 17.1937 3.28781C17.2315 3.1967 17.251 3.09902 17.251 3.00036C17.251 2.90171 17.2315 2.80403 17.1937 2.71291C17.1559 2.6218 17.1005 2.53903 17.0306 2.46936Z" fill="white" stroke="white"/>
</svg>
