<svg width="20" height="20" viewBox="0 0 20 20" fill="none" xmlns="http://www.w3.org/2000/svg">
<path fill-rule="evenodd" clip-rule="evenodd" d="M5.77391 1.06088C6.21844 0.941655 6.67545 1.20536 6.79468 1.64989L7.44218 4.06406C7.5614 4.50858 7.29769 4.96559 6.85317 5.08482C6.40864 5.20405 5.95163 4.94034 5.8324 4.49581L5.1849 2.08164C5.06568 1.63712 5.32939 1.18011 5.77391 1.06088ZM12.214 2.78568C12.5395 3.11111 12.5395 3.63875 12.214 3.96419L10.4457 5.73252C10.1203 6.05796 9.59264 6.05796 9.2672 5.73252C8.94176 5.40709 8.94176 4.87945 9.2672 4.55401L11.0355 2.78568C11.361 2.46024 11.8886 2.46024 12.214 2.78568ZM1.05989 5.77413C1.17907 5.32959 1.63606 5.06584 2.0806 5.18503L4.4956 5.83253C4.94013 5.95172 5.20388 6.4087 5.0847 6.85324C4.96551 7.29778 4.50852 7.56153 4.06398 7.44234L1.64898 6.79484C1.20445 6.67565 0.940698 6.21866 1.05989 5.77413ZM6.91053 6.91068C7.13947 6.68174 7.4803 6.60613 7.78458 6.71677L16.9512 10.0501C17.276 10.1682 17.4942 10.4745 17.4997 10.82C17.5052 11.1656 17.2968 11.4787 16.976 11.607L13.9827 12.8043L17.2557 16.0773C17.5812 16.4028 17.5812 16.9304 17.2557 17.2559C16.9303 17.5813 16.4026 17.5813 16.0772 17.2559L12.8042 13.9828L11.6069 16.9761C11.4785 17.297 11.1654 17.5053 10.8199 17.4998C10.4744 17.4943 10.1681 17.2762 10.05 16.9514L6.71663 7.78472C6.60598 7.48044 6.68159 7.13962 6.91053 6.91068ZM11.9105 11.9107C11.8235 11.9977 11.7597 12.0993 11.7192 12.2076L10.8702 14.3301L8.89321 8.89335L14.3299 10.8703L12.2074 11.7194C12.0991 11.7598 11.9976 11.8236 11.9105 11.9107ZM5.73127 9.26707C6.05686 9.59235 6.05711 10.12 5.73182 10.4456L3.96516 12.2139C3.63987 12.5395 3.11224 12.5398 2.78665 12.2145C2.46106 11.8892 2.46081 11.3615 2.78609 11.036L4.55276 9.26762C4.87804 8.94203 5.40568 8.94178 5.73127 9.26707Z" fill="#1A3D7D"/>
</svg>
