<svg width="24" height="24" viewBox="0 0 24 24" fill="none" xmlns="http://www.w3.org/2000/svg">
<path d="M21.0005 7C21.0005 6.62924 20.9181 6.26311 20.7593 5.92812C20.6004 5.59313 20.369 5.29768 20.0818 5.06316C19.7946 4.82864 19.4589 4.66093 19.0989 4.57218C18.7389 4.48342 18.3637 4.47585 18.0005 4.55V4C18.0007 3.6144 17.9117 3.23397 17.7405 2.88847C17.5693 2.54297 17.3205 2.24175 17.0135 2.00838C16.7065 1.77501 16.3497 1.61581 15.971 1.54323C15.5923 1.47065 15.202 1.48666 14.8305 1.59C14.6462 1.12195 14.3255 0.720084 13.9101 0.436556C13.4946 0.153028 13.0035 0.000929541 12.5005 0C11.2705 0 10.2505 0.89 10.0405 2.06C9.67521 1.9792 9.29648 1.98139 8.93219 2.06643C8.5679 2.15146 8.22733 2.31716 7.9356 2.55132C7.64386 2.78547 7.40839 3.08211 7.24655 3.41937C7.0847 3.75663 7.00061 4.12592 7.00046 4.5V10.39C6.66046 10.08 6.24046 9.85 5.78046 9.73L5.01046 9.52C4.18046 9.29 3.31046 9.61 2.82046 10.35C2.44046 10.92 2.42046 11.66 2.67046 12.3L5.23046 18.73C5.84847 20.2858 6.91965 21.6201 8.30511 22.5598C9.69057 23.4995 11.3264 24.0012 13.0005 24C17.4205 24 21.0005 20.42 21.0005 16V7ZM19.0005 16C19.0005 19.31 16.3105 22 13.0005 22C10.3905 22 8.05046 20.41 7.09046 17.99L4.49046 11.45L5.02046 11.59C5.48046 11.71 5.85046 12.05 6.02046 12.49L7.00046 15H9.00046V4.5C9.00046 4.22 9.22046 4 9.50046 4C9.78046 4 10.0005 4.22 10.0005 4.5V12H12.0005V2.5C12.0005 2.22 12.2205 2 12.5005 2C12.7805 2 13.0005 2.22 13.0005 2.5V12H15.0005V4C15.0005 3.72 15.2205 3.5 15.5005 3.5C15.7805 3.5 16.0005 3.72 16.0005 4V12H18.0005V7C18.0005 6.72 18.2205 6.5 18.5005 6.5C18.7805 6.5 19.0005 6.72 19.0005 7V16Z" fill="#CFCFCF"/>
</svg>
