<svg width="270" height="121" viewBox="0 0 270 121" fill="none" xmlns="http://www.w3.org/2000/svg">
<path d="M12.864 73C10.304 73 8.32 72.36 6.912 71.08C5.54667 69.7573 4.864 67.9653 4.864 65.704C4.864 65.064 4.928 64.4027 5.056 63.72L10.112 32.168H18.88L14.08 62.312C13.952 62.9947 13.888 63.4853 13.888 63.784C13.888 64.296 14.0373 64.7227 14.336 65.064C14.6773 65.3627 15.104 65.512 15.616 65.512H22.72L21.504 73H12.864ZM2.048 47.848L3.2 40.36H26.688L25.536 47.848H2.048ZM44.8295 73C41.5015 73 38.5362 72.5093 35.9335 71.528C33.3735 70.504 31.3468 68.9253 29.8535 66.792C28.4028 64.616 27.6775 61.8427 27.6775 58.472C27.6775 55.6987 28.1468 53.16 29.0855 50.856C30.0668 48.552 31.4108 46.568 33.1175 44.904C34.8668 43.1973 36.8935 41.896 39.1975 41C41.5442 40.0613 44.0828 39.592 46.8135 39.592C49.4162 39.592 51.5495 40.0187 53.2135 40.872C54.9202 41.7253 56.2002 42.8347 57.0535 44.2C57.9068 45.5653 58.3335 47.016 58.3335 48.552C58.3335 50.6853 57.8215 52.5627 56.7975 54.184C55.8162 55.7627 54.4295 57.1067 52.6375 58.216C50.8882 59.3253 48.8188 60.2213 46.4295 60.904C44.0402 61.544 41.4588 61.992 38.6855 62.248C38.3868 62.2907 38.1522 62.312 37.9815 62.312C37.8108 62.312 37.6402 62.312 37.4695 62.312C38.1095 63.3787 39.0695 64.1893 40.3495 64.744C41.6722 65.256 43.3788 65.512 45.4695 65.512H52.8295L51.6775 73H44.8295ZM36.6375 56.232C36.7228 56.232 36.8082 56.232 36.8935 56.232C37.0215 56.232 37.1708 56.2107 37.3415 56.168C39.7735 55.8267 41.7575 55.4213 43.2935 54.952C44.8722 54.44 46.0882 53.9067 46.9415 53.352C47.8375 52.7547 48.4562 52.1787 48.7975 51.624C49.1388 51.0267 49.3095 50.472 49.3095 49.96C49.3095 49.192 48.9895 48.5307 48.3495 47.976C47.7522 47.3787 46.8135 47.08 45.5335 47.08C43.9548 47.08 42.4828 47.5493 41.1175 48.488C39.7948 49.384 38.7282 50.536 37.9175 51.944C37.1068 53.3093 36.6802 54.696 36.6375 56.104C36.6375 56.1467 36.6375 56.168 36.6375 56.168C36.6375 56.168 36.6375 56.1893 36.6375 56.232ZM74.546 73.832C71.9007 73.832 69.5967 73.2133 67.634 71.976C65.6713 70.7387 64.1567 68.9893 63.09 66.728C62.0233 64.4667 61.49 61.8427 61.49 58.856C61.49 55.9973 61.9167 53.3947 62.77 51.048C63.666 48.6587 64.9247 46.6107 66.546 44.904C68.21 43.1973 70.1727 41.896 72.434 41C74.6953 40.0613 77.1913 39.592 79.922 39.592C81.714 39.592 83.5487 39.8693 85.426 40.424C87.3033 40.936 89.0313 41.7893 90.61 42.984C92.2313 44.136 93.5327 45.6933 94.514 47.656C95.4953 49.576 95.986 51.9653 95.986 54.824C95.986 55.464 95.9647 56.0613 95.922 56.616C95.8793 57.128 95.8153 57.64 95.73 58.152L93.298 73H84.53L85.298 67.944H85.17C83.8047 69.7787 82.162 71.2293 80.242 72.296C78.3647 73.32 76.466 73.832 74.546 73.832ZM77.81 66.344C79.5167 66.344 81.0527 65.8533 82.418 64.872C83.826 63.8907 84.9567 62.568 85.81 60.904C86.6633 59.24 87.09 57.384 87.09 55.336C87.09 53.7573 86.7913 52.3707 86.194 51.176C85.6393 49.9387 84.8073 48.9573 83.698 48.232C82.5887 47.5067 81.2233 47.144 79.602 47.144C77.938 47.144 76.402 47.6347 74.994 48.616C73.586 49.5973 72.4553 50.9413 71.602 52.648C70.7913 54.312 70.386 56.1893 70.386 58.28C70.386 60.0293 70.6847 61.5013 71.282 62.696C71.8793 63.8907 72.7327 64.808 73.842 65.448C74.9513 66.0453 76.274 66.344 77.81 66.344ZM132.253 73.768C129.864 73.768 127.794 73.2773 126.045 72.296C124.338 71.3147 123.016 69.992 122.077 68.328C121.181 66.664 120.733 64.7867 120.733 62.696C120.733 62.2267 120.754 61.736 120.797 61.224C120.882 60.712 120.968 60.1787 121.053 59.624L124.061 40.616C124.104 40.36 124.125 40.0827 124.125 39.784C124.168 39.4853 124.189 39.208 124.189 38.952C124.189 37.9707 123.848 37.16 123.165 36.52C122.525 35.8373 121.672 35.496 120.605 35.496C119.752 35.496 118.984 35.6667 118.301 36.008C117.618 36.3493 117.064 36.84 116.637 37.48C116.21 38.0773 115.933 38.824 115.805 39.72L110.557 73H101.405L106.461 40.808C106.93 37.9493 107.784 35.5387 109.021 33.576C110.258 31.5707 111.922 30.056 114.013 29.032C116.146 27.9653 118.706 27.432 121.693 27.432C124.168 27.432 126.258 27.9227 127.965 28.904C129.714 29.8853 131.037 31.208 131.933 32.872C132.872 34.536 133.341 36.4133 133.341 38.504C133.341 38.9733 133.32 39.4427 133.277 39.912C133.234 40.3387 133.17 40.7867 133.085 41.256L130.013 60.584C129.97 60.968 129.928 61.3093 129.885 61.608C129.842 61.864 129.821 62.0987 129.821 62.312C129.821 63.3787 130.162 64.2107 130.845 64.808C131.528 65.4053 132.381 65.704 133.405 65.704C134.728 65.704 135.816 65.32 136.669 64.552C137.565 63.784 138.098 62.76 138.269 61.48L141.533 40.808C142.002 37.9493 142.856 35.5387 144.093 33.576C145.33 31.5707 146.994 30.056 149.085 29.032C151.218 27.9653 153.778 27.432 156.765 27.432C159.24 27.432 161.33 27.9227 163.037 28.904C164.786 29.8853 166.109 31.208 167.005 32.872C167.944 34.536 168.413 36.4133 168.413 38.504C168.413 38.9307 168.392 39.3787 168.349 39.848C168.306 40.3173 168.242 40.7653 168.157 41.192L163.165 73H154.013L159.133 40.488C159.176 40.2747 159.197 40.0187 159.197 39.72C159.24 39.4213 159.261 39.1867 159.261 39.016C159.261 37.992 158.92 37.16 158.237 36.52C157.597 35.8373 156.744 35.496 155.677 35.496C154.824 35.496 154.056 35.6667 153.373 36.008C152.69 36.3493 152.136 36.84 151.709 37.48C151.282 38.0773 151.005 38.824 150.877 39.72L147.613 60.392C147.186 63.208 146.333 65.6187 145.053 67.624C143.773 69.6293 142.066 71.1653 139.933 72.232C137.842 73.256 135.282 73.768 132.253 73.768ZM184.859 73.832C182.213 73.832 179.909 73.2133 177.947 71.976C175.984 70.7387 174.469 68.9893 173.403 66.728C172.336 64.4667 171.803 61.8427 171.803 58.856C171.803 55.9973 172.229 53.3947 173.083 51.048C173.979 48.6587 175.237 46.6107 176.859 44.904C178.523 43.1973 180.485 41.896 182.747 41C185.008 40.0613 187.504 39.592 190.235 39.592C192.027 39.592 193.861 39.8693 195.739 40.424C197.616 40.936 199.344 41.7893 200.923 42.984C202.544 44.136 203.845 45.6933 204.826 47.656C205.808 49.576 206.299 51.9653 206.299 54.824C206.299 55.464 206.277 56.0613 206.235 56.616C206.192 57.128 206.128 57.64 206.043 58.152L203.611 73H194.843L195.611 67.944H195.483C194.117 69.7787 192.475 71.2293 190.555 72.296C188.677 73.32 186.779 73.832 184.859 73.832ZM188.123 66.344C189.829 66.344 191.365 65.8533 192.731 64.872C194.139 63.8907 195.269 62.568 196.123 60.904C196.976 59.24 197.403 57.384 197.403 55.336C197.403 53.7573 197.104 52.3707 196.507 51.176C195.952 49.9387 195.12 48.9573 194.011 48.232C192.901 47.5067 191.536 47.144 189.915 47.144C188.251 47.144 186.715 47.6347 185.307 48.616C183.899 49.5973 182.768 50.9413 181.915 52.648C181.104 54.312 180.699 56.1893 180.699 58.28C180.699 60.0293 180.997 61.5013 181.595 62.696C182.192 63.8907 183.045 64.808 184.155 65.448C185.264 66.0453 186.587 66.344 188.123 66.344ZM223.302 73C220.742 73 218.758 72.36 217.35 71.08C215.984 69.7573 215.302 67.9653 215.302 65.704C215.302 65.064 215.366 64.4027 215.494 63.72L220.55 32.168H229.318L224.518 62.312C224.39 62.9947 224.326 63.4853 224.326 63.784C224.326 64.296 224.475 64.7227 224.774 65.064C225.115 65.3627 225.542 65.512 226.054 65.512H233.158L231.942 73H223.302ZM212.486 47.848L213.638 40.36H237.126L235.974 47.848H212.486ZM255.267 73C251.939 73 248.974 72.5093 246.371 71.528C243.811 70.504 241.784 68.9253 240.291 66.792C238.84 64.616 238.115 61.8427 238.115 58.472C238.115 55.6987 238.584 53.16 239.523 50.856C240.504 48.552 241.848 46.568 243.555 44.904C245.304 43.1973 247.331 41.896 249.635 41C251.982 40.0613 254.52 39.592 257.251 39.592C259.854 39.592 261.987 40.0187 263.651 40.872C265.358 41.7253 266.638 42.8347 267.491 44.2C268.344 45.5653 268.771 47.016 268.771 48.552C268.771 50.6853 268.259 52.5627 267.235 54.184C266.254 55.7627 264.867 57.1067 263.075 58.216C261.326 59.3253 259.256 60.2213 256.867 60.904C254.478 61.544 251.896 61.992 249.123 62.248C248.824 62.2907 248.59 62.312 248.419 62.312C248.248 62.312 248.078 62.312 247.907 62.312C248.547 63.3787 249.507 64.1893 250.787 64.744C252.11 65.256 253.816 65.512 255.907 65.512H263.267L262.115 73H255.267ZM247.075 56.232C247.16 56.232 247.246 56.232 247.331 56.232C247.459 56.232 247.608 56.2107 247.779 56.168C250.211 55.8267 252.195 55.4213 253.731 54.952C255.31 54.44 256.526 53.9067 257.379 53.352C258.275 52.7547 258.894 52.1787 259.235 51.624C259.576 51.0267 259.747 50.472 259.747 49.96C259.747 49.192 259.427 48.5307 258.787 47.976C258.19 47.3787 257.251 47.08 255.971 47.08C254.392 47.08 252.92 47.5493 251.555 48.488C250.232 49.384 249.166 50.536 248.355 51.944C247.544 53.3093 247.118 54.696 247.075 56.104C247.075 56.1467 247.075 56.168 247.075 56.168C247.075 56.168 247.075 56.1893 247.075 56.232Z" fill="#F4EB3B"/>
<path d="M121.5 88C121.5 89.8516 121.017 91.5047 120.261 92.6794C119.503 93.8594 118.515 94.5 117.5 94.5C116.485 94.5 115.497 93.8594 114.739 92.6794C113.983 91.5047 113.5 89.8516 113.5 88C113.5 86.1484 113.983 84.4953 114.739 83.3206C115.497 82.1406 116.485 81.5 117.5 81.5C118.515 81.5 119.503 82.1406 120.261 83.3206C121.017 84.4953 121.5 86.1484 121.5 88Z" fill="#F4EB3B" stroke="#F4EB3B"/>
<path d="M153.5 88C153.5 89.8516 153.017 91.5047 152.261 92.6794C151.503 93.8594 150.515 94.5 149.5 94.5C148.485 94.5 147.497 93.8594 146.739 92.6794C145.983 91.5047 145.5 89.8516 145.5 88C145.5 86.1484 145.983 84.4953 146.739 83.3206C147.497 82.1406 148.485 81.5 149.5 81.5C150.515 81.5 151.503 82.1406 152.261 83.3206C153.017 84.4953 153.5 86.1484 153.5 88Z" fill="#F4EB3B" stroke="#F4EB3B"/>
<path d="M108 109C133 126.128 156.166 110.682 158 109" stroke="#F4EB3B" stroke-width="7" stroke-linecap="square"/>
</svg>
