<svg width="224" height="343" viewBox="0 0 224 343" fill="none" xmlns="http://www.w3.org/2000/svg">
<g filter="url(#filter0_i_342_8535)">
<ellipse cx="67" cy="244" rx="10" ry="15" fill="#F4EB3B"/>
</g>
<path d="M76.5 244C76.5 248.057 75.4028 251.708 73.655 254.329C71.905 256.954 69.5422 258.5 67 258.5C64.4578 258.5 62.095 256.954 60.345 254.329C58.5972 251.708 57.5 248.057 57.5 244C57.5 239.943 58.5972 236.292 60.345 233.671C62.095 231.046 64.4578 229.5 67 229.5C69.5422 229.5 71.905 231.046 73.655 233.671C75.4028 236.292 76.5 239.943 76.5 244Z" stroke="#F4EB3B"/>
<g filter="url(#filter1_i_342_8535)">
<ellipse cx="146" cy="244" rx="10" ry="15" fill="#F4EB3B"/>
</g>
<path d="M155.5 244C155.5 248.057 154.403 251.708 152.655 254.329C150.905 256.954 148.542 258.5 146 258.5C143.458 258.5 141.095 256.954 139.345 254.329C137.597 251.708 136.5 248.057 136.5 244C136.5 239.943 137.597 236.292 139.345 233.671C141.095 231.046 143.458 229.5 146 229.5C148.542 229.5 150.905 231.046 152.655 233.671C154.403 236.292 155.5 239.943 155.5 244Z" stroke="#F4EB3B"/>
<g filter="url(#filter2_i_342_8535)">
<path d="M37 293C105.5 350.806 168.974 298.675 174 293" stroke="#F4EB3B" stroke-width="13" stroke-linecap="round"/>
</g>
<g filter="url(#filter3_f_342_8535)">
<path d="M104.24 214.22C97.7033 214.22 92.03 212.863 87.22 210.15C82.5333 207.437 78.895 203.798 76.305 199.235C73.715 194.548 72.42 189.245 72.42 183.325C72.42 181.968 72.4817 180.488 72.605 178.885C72.8517 177.282 73.0983 175.678 73.345 174.075L82.41 117.835C82.5333 116.972 82.595 116.047 82.595 115.06C82.7183 114.073 82.78 113.21 82.78 112.47C82.78 108.77 81.5467 105.748 79.08 103.405C76.7367 100.938 73.6533 99.705 69.83 99.705C66.9933 99.705 64.3417 100.322 61.875 101.555C59.5317 102.788 57.5583 104.515 55.955 106.735C54.475 108.832 53.55 111.422 53.18 114.505L37.825 212H15.625L30.61 117.28C31.8433 109.387 34.1867 102.727 37.64 97.3C41.0933 91.75 45.7183 87.5567 51.515 84.72C57.435 81.76 64.4033 80.28 72.42 80.28C79.2033 80.28 85 81.6367 89.81 84.35C94.7433 87.0633 98.505 90.7633 101.095 95.45C103.685 100.137 104.98 105.44 104.98 111.36C104.98 112.593 104.857 113.888 104.61 115.245C104.487 116.602 104.302 117.958 104.055 119.315L94.99 176.665C94.8667 177.775 94.7433 178.823 94.62 179.81C94.4967 180.797 94.435 181.66 94.435 182.4C94.435 186.223 95.6067 189.245 97.95 191.465C100.293 193.685 103.253 194.795 106.83 194.795C111.27 194.795 115.032 193.438 118.115 190.725C121.322 187.888 123.233 184.188 123.85 179.625L133.655 117.28C134.888 109.387 137.232 102.727 140.685 97.3C144.262 91.75 148.948 87.5567 154.745 84.72C160.542 81.76 167.448 80.28 175.465 80.28C182.372 80.28 188.23 81.6367 193.04 84.35C197.85 87.0633 201.55 90.7633 204.14 95.45C206.73 100.137 208.025 105.44 208.025 111.36C208.025 112.593 207.963 113.888 207.84 115.245C207.717 116.602 207.532 117.897 207.285 119.13L192.67 212H170.47L185.455 117.465C185.578 116.848 185.64 116.047 185.64 115.06C185.763 113.95 185.825 113.087 185.825 112.47C185.825 108.77 184.592 105.748 182.125 103.405C179.782 100.938 176.698 99.705 172.875 99.705C170.038 99.705 167.387 100.322 164.92 101.555C162.577 102.788 160.603 104.515 159 106.735C157.52 108.832 156.595 111.422 156.225 114.505L146.235 177.22C145.125 184.99 142.782 191.65 139.205 197.2C135.628 202.75 130.942 207.005 125.145 209.965C119.348 212.802 112.38 214.22 104.24 214.22Z" fill="#F4EB3B"/>
<path d="M78.042 243.557C78.042 247.598 76.7854 251.239 74.7769 253.859C72.7688 256.478 70.0297 258.057 67.042 258.057C64.0543 258.057 61.3152 256.478 59.3071 253.859C57.2986 251.239 56.042 247.598 56.042 243.557C56.042 239.515 57.2986 235.874 59.3071 233.254C61.3152 230.635 64.0543 229.057 67.042 229.057C70.0297 229.057 72.7688 230.635 74.7769 233.254C76.7854 235.874 78.042 239.515 78.042 243.557Z" fill="#F4EB3B" stroke="#F4EB3B"/>
<path d="M156.625 243.557C156.625 247.598 155.368 251.239 153.36 253.859C151.352 256.478 148.613 258.057 145.625 258.057C142.637 258.057 139.898 256.478 137.89 253.859C135.882 251.239 134.625 247.598 134.625 243.557C134.625 239.515 135.882 235.874 137.89 233.254C139.898 230.635 142.637 229.057 145.625 229.057C148.613 229.057 151.352 230.635 153.36 233.254C155.368 235.874 156.625 239.515 156.625 243.557Z" fill="#F4EB3B" stroke="#F4EB3B"/>
<path d="M37 293C105.333 351.734 168.653 298.766 173.667 293" stroke="#F4EB3B" stroke-width="15" stroke-linecap="square"/>
</g>
<g filter="url(#filter4_i_342_8535)">
<path d="M104.08 212.16C98.08 212.16 92.86 210.9 88.42 208.38C83.98 205.86 80.56 202.44 78.16 198.12C75.88 193.8 74.74 188.82 74.74 183.18C74.74 181.86 74.8 180.42 74.92 178.86C75.16 177.18 75.4 175.56 75.64 174L84.46 117.84C84.7 117 84.82 116.04 84.82 114.96C84.94 113.76 85 112.74 85 111.9C85 107.7 83.56 104.16 80.68 101.28C77.92 98.4 74.32 96.96 69.88 96.96C66.64 96.96 63.64 97.68 60.88 99.12C58.24 100.56 56.02 102.54 54.22 105.06C52.42 107.46 51.28 110.4 50.8 113.88L35.86 210H18.58L33.16 116.04C34.36 108.84 36.58 102.72 39.82 97.68C43.18 92.52 47.56 88.62 52.96 85.98C58.36 83.22 64.66 81.84 71.86 81.84C78.1 81.84 83.5 83.1 88.06 85.62C92.62 88.14 96.1 91.62 98.5 96.06C101.02 100.38 102.28 105.36 102.28 111C102.28 112.32 102.22 113.7 102.1 115.14C101.98 116.46 101.8 117.72 101.56 118.92L92.38 176.16C92.26 177.24 92.14 178.38 92.02 179.58C91.9 180.66 91.84 181.62 91.84 182.46C91.84 186.9 93.1 190.44 95.62 193.08C98.26 195.72 101.68 197.04 105.88 197.04C110.92 197.04 115.18 195.42 118.66 192.18C122.26 188.94 124.48 184.68 125.32 179.4L135.22 116.04C136.3 108.84 138.46 102.72 141.7 97.68C145.06 92.52 149.44 88.62 154.84 85.98C160.24 83.22 166.54 81.84 173.74 81.84C180.1 81.84 185.56 83.1 190.12 85.62C194.68 88.14 198.16 91.62 200.56 96.06C203.08 100.38 204.34 105.36 204.34 111C204.34 112.2 204.22 113.52 203.98 114.96C203.86 116.4 203.68 117.66 203.44 118.74L189.04 210H171.76L186.52 117.66C186.64 116.82 186.76 115.86 186.88 114.78C187 113.7 187.06 112.8 187.06 112.08C187.06 107.64 185.62 104.04 182.74 101.28C179.98 98.4 176.32 96.96 171.76 96.96C168.64 96.96 165.7 97.68 162.94 99.12C160.18 100.56 157.9 102.54 156.1 105.06C154.42 107.46 153.34 110.4 152.86 113.88L142.78 177.78C141.7 184.86 139.48 191.04 136.12 196.32C132.76 201.48 128.38 205.44 122.98 208.2C117.7 210.84 111.4 212.16 104.08 212.16Z" fill="#F4EB3B"/>
</g>
<defs>
<filter id="filter0_i_342_8535" x="57" y="229" width="20" height="34" filterUnits="userSpaceOnUse" color-interpolation-filters="sRGB">
<feFlood flood-opacity="0" result="BackgroundImageFix"/>
<feBlend mode="normal" in="SourceGraphic" in2="BackgroundImageFix" result="shape"/>
<feColorMatrix in="SourceAlpha" type="matrix" values="0 0 0 0 0 0 0 0 0 0 0 0 0 0 0 0 0 0 127 0" result="hardAlpha"/>
<feOffset dy="4"/>
<feGaussianBlur stdDeviation="2"/>
<feComposite in2="hardAlpha" operator="arithmetic" k2="-1" k3="1"/>
<feColorMatrix type="matrix" values="0 0 0 0 0 0 0 0 0 0 0 0 0 0 0 0 0 0 0.25 0"/>
<feBlend mode="normal" in2="shape" result="effect1_innerShadow_342_8535"/>
</filter>
<filter id="filter1_i_342_8535" x="136" y="229" width="20" height="34" filterUnits="userSpaceOnUse" color-interpolation-filters="sRGB">
<feFlood flood-opacity="0" result="BackgroundImageFix"/>
<feBlend mode="normal" in="SourceGraphic" in2="BackgroundImageFix" result="shape"/>
<feColorMatrix in="SourceAlpha" type="matrix" values="0 0 0 0 0 0 0 0 0 0 0 0 0 0 0 0 0 0 127 0" result="hardAlpha"/>
<feOffset dy="4"/>
<feGaussianBlur stdDeviation="2"/>
<feComposite in2="hardAlpha" operator="arithmetic" k2="-1" k3="1"/>
<feColorMatrix type="matrix" values="0 0 0 0 0 0 0 0 0 0 0 0 0 0 0 0 0 0 0.25 0"/>
<feBlend mode="normal" in2="shape" result="effect1_innerShadow_342_8535"/>
</filter>
<filter id="filter2_i_342_8535" x="30.5" y="286.5" width="150" height="43.998" filterUnits="userSpaceOnUse" color-interpolation-filters="sRGB">
<feFlood flood-opacity="0" result="BackgroundImageFix"/>
<feBlend mode="normal" in="SourceGraphic" in2="BackgroundImageFix" result="shape"/>
<feColorMatrix in="SourceAlpha" type="matrix" values="0 0 0 0 0 0 0 0 0 0 0 0 0 0 0 0 0 0 127 0" result="hardAlpha"/>
<feOffset dy="4"/>
<feGaussianBlur stdDeviation="2"/>
<feComposite in2="hardAlpha" operator="arithmetic" k2="-1" k3="1"/>
<feColorMatrix type="matrix" values="0 0 0 0 0 0 0 0 0 0 0 0 0 0 0 0 0 0 0.25 0"/>
<feBlend mode="normal" in2="shape" result="effect1_innerShadow_342_8535"/>
</filter>
<filter id="filter3_f_342_8535" x="0.625" y="65.2803" width="222.4" height="277.65" filterUnits="userSpaceOnUse" color-interpolation-filters="sRGB">
<feFlood flood-opacity="0" result="BackgroundImageFix"/>
<feBlend mode="normal" in="SourceGraphic" in2="BackgroundImageFix" result="shape"/>
<feGaussianBlur stdDeviation="7.5" result="effect1_foregroundBlur_342_8535"/>
</filter>
<filter id="filter4_i_342_8535" x="18.5801" y="81.8398" width="185.76" height="134.32" filterUnits="userSpaceOnUse" color-interpolation-filters="sRGB">
<feFlood flood-opacity="0" result="BackgroundImageFix"/>
<feBlend mode="normal" in="SourceGraphic" in2="BackgroundImageFix" result="shape"/>
<feColorMatrix in="SourceAlpha" type="matrix" values="0 0 0 0 0 0 0 0 0 0 0 0 0 0 0 0 0 0 127 0" result="hardAlpha"/>
<feOffset dy="4"/>
<feGaussianBlur stdDeviation="2"/>
<feComposite in2="hardAlpha" operator="arithmetic" k2="-1" k3="1"/>
<feColorMatrix type="matrix" values="0 0 0 0 0 0 0 0 0 0 0 0 0 0 0 0 0 0 0.25 0"/>
<feBlend mode="normal" in2="shape" result="effect1_innerShadow_342_8535"/>
</filter>
</defs>
</svg>
