<svg width="25" height="25" viewBox="0 0 25 25" fill="none" xmlns="http://www.w3.org/2000/svg">
<path d="M12 5.00023H5C4.46957 5.00023 3.96086 5.21094 3.58579 5.58601C3.21071 5.96109 3 6.46979 3 7.00023V21.0002C3 21.5307 3.21071 22.0394 3.58579 22.4144C3.96086 22.7895 4.46957 23.0002 5 23.0002H19C19.5304 23.0002 20.0391 22.7895 20.4142 22.4144C20.7893 22.0394 21 21.5307 21 21.0002V14.0002M19.5 3.50023C19.8978 3.1024 20.4374 2.87891 21 2.87891C21.5626 2.87891 22.1022 3.1024 22.5 3.50023C22.8978 3.89805 23.1213 4.43762 23.1213 5.00023C23.1213 5.56284 22.8978 6.1024 22.5 6.50023L13 16.0002L9 17.0002L10 13.0002L19.5 3.50023Z" stroke="#1A3D7D" stroke-width="2" stroke-linecap="round"/>
</svg>
